<svg aria-hidden="true" style="width:0;height:0;position:absolute;overflow:hidden" xmlns="http://www.w3.org/2000/svg"><defs><symbol id="icon-indeed" viewBox="0 0 32 32"><path fill="#fff" style="fill:var(--color1,#fff)" d="M19.76 13.745c-3.197 1.64-6.776-1.417-5.661-4.833 1.12-3.417 5.813-3.767 7.423-.552a4.001 4.001 0 0 1-1.761 5.389zM15.469.76c3.291-1.197 7.057-1.135 9.875 1.313a4.781 4.781 0 0 1 1.364 1.828c.281.916-1-.095-1.172-.224a12.665 12.665 0 0 0-2.869-1.464C17.115.516 11.864 3.609 8.62 8.421a26.016 26.016 0 0 0-3 6.833 4.18 4.18 0 0 1-.281.86c-.145.271-.068-.735-.068-.765.12-1.005.313-2.005.573-2.985C7.349 7.12 10.683 2.755 15.469.755zm.047 27.995V17.068c.333.036.645.052.979.052 1.516.005 3-.412 4.297-1.193V28.75c0 1.1-.204 1.907-.699 2.439a2.49 2.49 0 0 1-1.932.812 2.44 2.44 0 0 1-1.907-.812c-.489-.537-.744-1.349-.744-2.433z"/></symbol><symbol id="icon-linkedin-round" viewBox="0 0 32 32"><path fill="#fff" style="fill:var(--color1,#fff)" d="M16 0C7.162 0 0 7.162 0 16s7.162 16 16 16 16-7.163 16-16S24.837 0 16 0zm-4.475 22.694H8.406v-9.981h3.119v9.981zM9.881 11.463h-.025c-1.131 0-1.862-.762-1.862-1.731 0-.988.756-1.731 1.906-1.731s1.856.744 1.881 1.731c.006.963-.725 1.731-1.9 1.731zM24 22.694h-3.538v-5.163c0-1.35-.55-2.275-1.769-2.275-.931 0-1.45.625-1.688 1.225-.087.212-.075.512-.075.819v5.394h-3.506s.044-9.15 0-9.981h3.506v1.569c.206-.688 1.325-1.662 3.113-1.662 2.219 0 3.956 1.438 3.956 4.525v5.55z"/></symbol><symbol id="icon-xing" viewBox="0 0 32 32"><path fill="#fff" style="fill:var(--color1,#fff)" d="M16 0C7.164 0 0 7.163 0 16s7.164 16 16 16 16-7.163 16-16S24.836 0 16 0zm-5.776 20.466h-3.21a.471.471 0 0 1-.419-.219c-.085-.137-.089-.315 0-.492l3.41-6.019c.004-.007.004-.011 0-.018l-2.17-3.757c-.089-.179-.103-.355-.018-.492.082-.133.244-.2.438-.2h3.21c.492 0 .734.317.893.602l2.207 3.848-3.465 6.128c-.164.296-.395.62-.875.62zM25.402 5.572l-7.107 12.566c-.005.007-.005.015 0 .021l4.525 8.268c.089.178.092.359.007.496-.081.132-.233.205-.426.205h-3.206c-.492 0-.738-.327-.896-.611l-4.561-8.368L20.88 5.484c.172-.309.38-.611.859-.611h3.243c.193 0 .345.073.427.205.085.137.083.318-.006.495z"/></symbol><symbol id="icon-github" viewBox="0 0 32 32"><path fill="#fff" style="fill:var(--color1,#fff)" d="M16 0c8.837 0 16 7.344 16 16.405 0 7.246-4.579 13.394-10.933 15.565-.811.162-1.099-.35-1.099-.787 0-.541.019-2.307.019-4.502 0-1.53-.512-2.528-1.086-3.037 3.563-.406 7.307-1.794 7.307-8.094 0-1.792-.621-3.254-1.648-4.403.166-.414.715-2.083-.157-4.342 0 0-1.341-.44-4.395 1.682A15.023 15.023 0 0 0 16 7.935c-1.36.006-2.728.189-4.005.552-3.058-2.122-4.402-1.682-4.402-1.682-.869 2.259-.32 3.928-.155 4.342-1.022 1.149-1.648 2.611-1.648 4.403 0 6.285 3.736 7.693 7.29 8.107-.458.41-.872 1.133-1.016 2.194-.912.419-3.229 1.144-4.656-1.363 0 0-.846-1.576-2.453-1.691 0 0-1.56-.021-.109.997 0 0 1.048.504 1.776 2.4 0 0 .939 2.928 5.39 1.936.008 1.371.022 2.664.022 3.054 0 .434-.294.941-1.093.789C4.583 29.805-.001 23.655-.001 16.407c0-9.061 7.165-16.405 16-16.405z"/></symbol><symbol id="icon-button-hero" viewBox="0 0 16 32"><path fill="#fff" style="fill:var(--color1,#fff)" d="m14.019 17.062-8.5 8.5a1.493 1.493 0 0 1-2.119 0L1.987 24.15a1.495 1.495 0 0 1 0-2.119l6.025-6.025-6.025-6.025a1.495 1.495 0 0 1 0-2.119l1.406-1.425a1.493 1.493 0 0 1 2.119 0l8.5 8.5c.594.588.594 1.538.006 2.125z"/></symbol><symbol id="icon-finance1" viewBox="0 0 32 32"><path fill="#fff" style="fill:var(--color1,#fff)" d="M31 8v1a.498.498 0 0 1-.5.5H29v.75a.75.75 0 0 1-.75.75H3.75a.75.75 0 0 1-.75-.75V9.5H1.5A.498.498 0 0 1 1 9V8a.5.5 0 0 1 .308-.462l14.5-5.5a.496.496 0 0 1 .382 0l14.5 5.5a.503.503 0 0 1 .308.462zm-1.5 19h-27A1.5 1.5 0 0 0 1 28.5v1a.498.498 0 0 0 .5.5h29a.498.498 0 0 0 .5-.5v-1a1.5 1.5 0 0 0-1.5-1.5zM6 12v12H3.75a.75.75 0 0 0-.75.75V26h26v-1.25a.75.75 0 0 0-.75-.75H26V12h-4v12h-4V12h-4v12h-4V12H6z"/></symbol><symbol id="icon-finance2" viewBox="0 0 32 32"><path fill="#fff" style="fill:var(--color1,#fff)" d="M21.858 6.167a5.9 5.9 0 1 0-11.801.001 5.9 5.9 0 0 0 11.801-.001zm-7.277 8.917c-3.646-2.232-9.552-2.845-12.524-3.014-.999-.056-1.831.704-1.831 1.665v13.693c0 .881.712 1.615 1.628 1.662 2.683.141 8.112.656 11.864 2.546.576.29 1.259-.105 1.259-.73V15.788a.818.818 0 0 0-.395-.704zm15.278-3.014c-2.971.168-8.878.782-12.524 3.014a.833.833 0 0 0-.394.715v15.106c0 .626.685 1.022 1.262.731 3.751-1.888 9.177-2.404 11.859-2.544.916-.048 1.628-.782 1.628-1.663V13.735c-.001-.961-.833-1.721-1.832-1.665z"/></symbol><symbol id="icon-finance3" viewBox="0 0 32 32"><path fill="#fff" style="fill:var(--color1,#fff)" d="m31.119 8.881-2.881 2.881a.75.75 0 0 1-1.063 0l-6.938-6.938a.75.75 0 0 1 0-1.063L23.118.88a3.006 3.006 0 0 1 4.244 0l3.756 3.756a2.995 2.995 0 0 1 0 4.244zM17.763 6.238 1.35 22.651.025 30.245a1.503 1.503 0 0 0 1.738 1.738l7.594-1.331L25.77 14.24a.75.75 0 0 0 0-1.063l-6.938-6.938a.758.758 0 0 0-1.069 0zM7.756 21.244a.87.87 0 0 1 0-1.237l9.625-9.625c.344-.344.894-.344 1.238 0s.344.894 0 1.238l-9.625 9.625a.87.87 0 0 1-1.237 0zM5.5 26.5h3v2.269l-4.031.706-1.944-1.944.706-4.031H5.5v3z"/></symbol><symbol id="icon-foot-FaceBook" viewBox="0 0 32 32"><path fill="#fff" style="fill:var(--color1,#fff)" d="M31.5 16.343c0-8.563-6.938-15.5-15.5-15.5S.5 7.781.5 16.343c0 7.75 5.625 14.188 13.063 15.312V20.843H9.625v-4.5h3.938v-3.375c0-3.875 2.313-6.063 5.812-6.063 1.75 0 3.5.313 3.5.313v3.813h-1.937c-1.938 0-2.562 1.187-2.562 2.438v2.875h4.313l-.688 4.5h-3.625v10.812c7.437-1.125 13.125-7.562 13.125-15.312z"/></symbol><symbol id="icon-foot-LinIN" viewBox="0 0 32 32"><path fill="#fff" style="fill:var(--color1,#fff)" d="M7.25 32V10.901H.687V32H7.25zM3.933 8.079c2.117 0 3.81-1.764 3.81-3.881 0-2.046-1.694-3.74-3.81-3.74-2.046 0-3.74 1.694-3.74 3.74 0 2.117 1.694 3.881 3.74 3.881zM31.736 32h.071V20.427c0-5.645-1.27-10.02-7.903-10.02-3.175 0-5.292 1.764-6.21 3.387h-.07v-2.893h-6.28V32h6.562V21.556c0-2.752.494-5.363 3.881-5.363s3.458 3.105 3.458 5.575V32h6.492z"/></symbol><symbol id="icon-foot-twit" viewBox="0 0 37 32"><path fill="#fff" style="fill:var(--color1,#fff)" d="M33.469 8.283c1.458-1.094 2.771-2.406 3.792-3.938a14.363 14.363 0 0 1-4.375 1.167c1.604-.948 2.771-2.406 3.354-4.229a16.177 16.177 0 0 1-4.812 1.896A7.657 7.657 0 0 0 25.813.773a7.655 7.655 0 0 0-7.656 7.656c0 .583.073 1.167.219 1.75A22.215 22.215 0 0 1 2.553 2.158c-.656 1.094-1.021 2.406-1.021 3.865a7.536 7.536 0 0 0 3.427 6.344c-1.24-.073-2.479-.365-3.5-.948v.073c0 3.719 2.625 6.781 6.125 7.511-.583.146-1.313.292-1.969.292-.51 0-.948-.073-1.458-.146.948 3.063 3.792 5.25 7.146 5.323-2.625 2.042-5.906 3.281-9.479 3.281-.656 0-1.24-.073-1.823-.146 3.354 2.187 7.365 3.427 11.74 3.427 14.073 0 21.729-11.594 21.729-21.729V8.284z"/></symbol><symbol id="icon-foot-youtube" viewBox="0 0 45 32"><path fill="#fff" style="fill:var(--color1,#fff)" d="M43.664 5.831c-.486-1.944-2.025-3.484-3.889-3.97C36.291.889 22.518.889 22.518.889s-13.854 0-17.338.972c-1.863.486-3.403 2.025-3.889 3.97C.319 9.234.319 16.526.319 16.526s0 7.211.972 10.694c.486 1.944 2.025 3.403 3.889 3.889C8.664 32 22.518 32 22.518 32s13.773 0 17.257-.891c1.863-.486 3.403-1.944 3.889-3.889.972-3.484.972-10.694.972-10.694s0-7.292-.972-10.694zM17.982 23.088V9.963l11.505 6.563-11.505 6.563z"/></symbol><symbol id="icon-header-logo" viewBox="0 0 37 32"><path fill="#28a745" style="fill:var(--color2,#28a745)" d="M33.831 2.003c-3.419.194-10.215.902-14.41 3.474a.961.961 0 0 0-.454.823v22.742c0 .722.788 1.178 1.453.843 4.316-2.176 10.559-2.77 13.645-2.932 1.054-.056 1.873-.902 1.873-1.916V3.922c.001-1.107-.958-1.984-2.107-1.919zM16.517 5.478C12.322 2.906 5.526 2.199 2.107 2.004.958 1.939-.001 2.816-.001 3.923v21.116c0 1.015.819 1.861 1.873 1.916 3.088.162 9.333.757 13.65 2.934.663.334 1.448-.121 1.448-.841V6.29a.94.94 0 0 0-.454-.812z"/></symbol></defs></svg>